<mxfile host="Electron" modified="2023-12-13T18:33:30.726Z" agent="Mozilla/5.0 (X11; Linux x86_64) AppleWebKit/537.36 (KHTML, like Gecko) draw.io/22.1.2 Chrome/114.0.5735.289 Electron/25.9.4 Safari/537.36" etag="UMRyzSXTxsfpa0TtQ4w9" version="22.1.2" type="device">
  <diagram id="C5RBs43oDa-KdzZeNtuy" name="Page-1">
    <mxGraphModel dx="1562" dy="1037" grid="1" gridSize="10" guides="1" tooltips="1" connect="1" arrows="1" fold="1" page="1" pageScale="1" pageWidth="827" pageHeight="1169" math="0" shadow="0">
      <root>
        <mxCell id="WIyWlLk6GJQsqaUBKTNV-0" />
        <mxCell id="WIyWlLk6GJQsqaUBKTNV-1" parent="WIyWlLk6GJQsqaUBKTNV-0" />
        <mxCell id="WIyWlLk6GJQsqaUBKTNV-3" value="Окно&amp;nbsp; вопроса и вариантов ответа" style="rounded=1;whiteSpace=wrap;html=1;fontSize=12;glass=0;strokeWidth=1;shadow=0;spacing=10;" parent="WIyWlLk6GJQsqaUBKTNV-1" vertex="1">
          <mxGeometry x="200" y="600" width="160" height="80" as="geometry" />
        </mxCell>
        <mxCell id="Wa4zjlMW-Ga0Yt3BIg9S-1" value="Состояние игры" style="text;html=1;strokeColor=none;fillColor=none;align=left;verticalAlign=middle;whiteSpace=wrap;rounded=0;fontSize=16;spacing=10;" vertex="1" parent="WIyWlLk6GJQsqaUBKTNV-1">
          <mxGeometry width="320" height="40" as="geometry" />
        </mxCell>
        <mxCell id="Wa4zjlMW-Ga0Yt3BIg9S-23" value="Нет" style="endArrow=classic;html=1;rounded=0;" edge="1" parent="WIyWlLk6GJQsqaUBKTNV-1" source="Wa4zjlMW-Ga0Yt3BIg9S-39" target="Wa4zjlMW-Ga0Yt3BIg9S-38">
          <mxGeometry relative="1" as="geometry">
            <mxPoint x="100" y="360" as="sourcePoint" />
            <mxPoint x="280" y="240" as="targetPoint" />
          </mxGeometry>
        </mxCell>
        <mxCell id="Wa4zjlMW-Ga0Yt3BIg9S-38" value="Показ списка уровней.&lt;br&gt;- статистика и прочая информация по каждому уровню" style="rounded=1;whiteSpace=wrap;html=1;align=left;spacing=10;" vertex="1" parent="WIyWlLk6GJQsqaUBKTNV-1">
          <mxGeometry x="200" y="200" width="160" height="80" as="geometry" />
        </mxCell>
        <mxCell id="Wa4zjlMW-Ga0Yt3BIg9S-39" value="Есть&lt;br&gt;не законченная &lt;br&gt;игра?" style="rhombus;whiteSpace=wrap;html=1;" vertex="1" parent="WIyWlLk6GJQsqaUBKTNV-1">
          <mxGeometry x="200" y="80" width="160" height="80" as="geometry" />
        </mxCell>
        <mxCell id="Wa4zjlMW-Ga0Yt3BIg9S-40" value="" style="html=1;rounded=0;strokeWidth=1;entryX=0.5;entryY=0;entryDx=0;entryDy=0;exitX=0.5;exitY=1;exitDx=0;exitDy=0;" edge="1" parent="WIyWlLk6GJQsqaUBKTNV-1" source="Wa4zjlMW-Ga0Yt3BIg9S-60" target="Wa4zjlMW-Ga0Yt3BIg9S-62">
          <mxGeometry width="100" relative="1" as="geometry">
            <mxPoint x="294.2307692307693" y="440" as="sourcePoint" />
            <mxPoint x="285" y="480" as="targetPoint" />
          </mxGeometry>
        </mxCell>
        <mxCell id="Wa4zjlMW-Ga0Yt3BIg9S-43" value="Последний &lt;br&gt;вопрос в игре?" style="strokeWidth=1;html=1;shape=mxgraph.flowchart.decision;whiteSpace=wrap;" vertex="1" parent="WIyWlLk6GJQsqaUBKTNV-1">
          <mxGeometry x="200" y="760" width="160" height="80" as="geometry" />
        </mxCell>
        <mxCell id="Wa4zjlMW-Ga0Yt3BIg9S-45" value="Выбор уровня" style="html=1;rounded=0;strokeWidth=1;entryX=0.5;entryY=0;entryDx=0;entryDy=0;" edge="1" parent="WIyWlLk6GJQsqaUBKTNV-1" source="Wa4zjlMW-Ga0Yt3BIg9S-38" target="Wa4zjlMW-Ga0Yt3BIg9S-60">
          <mxGeometry width="100" relative="1" as="geometry">
            <mxPoint x="280" y="280" as="sourcePoint" />
            <mxPoint x="296.2962962962963" y="350" as="targetPoint" />
          </mxGeometry>
        </mxCell>
        <mxCell id="Wa4zjlMW-Ga0Yt3BIg9S-48" value="Пользователь &lt;br&gt;отвечает" style="endArrow=classic;html=1;rounded=0;exitX=0.5;exitY=1;exitDx=0;exitDy=0;" edge="1" parent="WIyWlLk6GJQsqaUBKTNV-1" source="WIyWlLk6GJQsqaUBKTNV-3" target="Wa4zjlMW-Ga0Yt3BIg9S-43">
          <mxGeometry width="50" height="50" relative="1" as="geometry">
            <mxPoint x="270" y="840" as="sourcePoint" />
            <mxPoint x="440" y="690" as="targetPoint" />
            <Array as="points" />
          </mxGeometry>
        </mxCell>
        <mxCell id="Wa4zjlMW-Ga0Yt3BIg9S-50" value="Выход&lt;br&gt;из игры" style="endArrow=classic;html=1;rounded=0;exitX=1;exitY=0.5;exitDx=0;exitDy=0;" edge="1" parent="WIyWlLk6GJQsqaUBKTNV-1" source="WIyWlLk6GJQsqaUBKTNV-3" target="Wa4zjlMW-Ga0Yt3BIg9S-61">
          <mxGeometry x="-0.2727" width="50" height="50" relative="1" as="geometry">
            <mxPoint x="470" y="520" as="sourcePoint" />
            <mxPoint x="500" y="440" as="targetPoint" />
            <Array as="points" />
            <mxPoint as="offset" />
          </mxGeometry>
        </mxCell>
        <mxCell id="Wa4zjlMW-Ga0Yt3BIg9S-51" value="" style="endArrow=classic;html=1;rounded=0;exitX=1;exitY=0.5;exitDx=0;exitDy=0;exitPerimeter=0;" edge="1" parent="WIyWlLk6GJQsqaUBKTNV-1" source="Wa4zjlMW-Ga0Yt3BIg9S-43" target="Wa4zjlMW-Ga0Yt3BIg9S-61">
          <mxGeometry width="50" height="50" relative="1" as="geometry">
            <mxPoint x="390" y="690" as="sourcePoint" />
            <mxPoint x="500" y="440" as="targetPoint" />
            <Array as="points">
              <mxPoint x="640" y="800" />
            </Array>
          </mxGeometry>
        </mxCell>
        <mxCell id="Wa4zjlMW-Ga0Yt3BIg9S-54" value="Да" style="edgeLabel;html=1;align=center;verticalAlign=middle;resizable=0;points=[];" vertex="1" connectable="0" parent="Wa4zjlMW-Ga0Yt3BIg9S-51">
          <mxGeometry x="-0.7589" y="-2" relative="1" as="geometry">
            <mxPoint y="-2" as="offset" />
          </mxGeometry>
        </mxCell>
        <mxCell id="Wa4zjlMW-Ga0Yt3BIg9S-53" value="" style="endArrow=classic;html=1;rounded=0;entryX=1;entryY=0.5;entryDx=0;entryDy=0;exitX=0.25;exitY=0;exitDx=0;exitDy=0;" edge="1" parent="WIyWlLk6GJQsqaUBKTNV-1" source="Wa4zjlMW-Ga0Yt3BIg9S-61" target="Wa4zjlMW-Ga0Yt3BIg9S-38">
          <mxGeometry width="50" height="50" relative="1" as="geometry">
            <mxPoint x="500" y="350" as="sourcePoint" />
            <mxPoint x="540" y="270" as="targetPoint" />
            <Array as="points">
              <mxPoint x="595" y="240" />
            </Array>
          </mxGeometry>
        </mxCell>
        <mxCell id="Wa4zjlMW-Ga0Yt3BIg9S-55" value="Нет" style="endArrow=classic;html=1;rounded=0;exitX=0;exitY=0.5;exitDx=0;exitDy=0;exitPerimeter=0;entryX=0;entryY=0.5;entryDx=0;entryDy=0;" edge="1" parent="WIyWlLk6GJQsqaUBKTNV-1" source="Wa4zjlMW-Ga0Yt3BIg9S-43" target="Wa4zjlMW-Ga0Yt3BIg9S-62">
          <mxGeometry x="-0.8605" width="50" height="50" relative="1" as="geometry">
            <mxPoint x="330" y="1020" as="sourcePoint" />
            <mxPoint x="380" y="970" as="targetPoint" />
            <Array as="points">
              <mxPoint x="120" y="800" />
              <mxPoint x="120" y="520" />
            </Array>
            <mxPoint as="offset" />
          </mxGeometry>
        </mxCell>
        <mxCell id="Wa4zjlMW-Ga0Yt3BIg9S-60" value="Старт игры:&lt;br&gt;формирование списка вопросов на игру" style="shape=process;whiteSpace=wrap;html=1;backgroundOutline=1;size=0.05555555555555555;" vertex="1" parent="WIyWlLk6GJQsqaUBKTNV-1">
          <mxGeometry x="190" y="360" width="180" height="80" as="geometry" />
        </mxCell>
        <mxCell id="Wa4zjlMW-Ga0Yt3BIg9S-61" value="Остановка игры" style="shape=process;whiteSpace=wrap;html=1;backgroundOutline=1;size=0.05555555555555555;" vertex="1" parent="WIyWlLk6GJQsqaUBKTNV-1">
          <mxGeometry x="550" y="600" width="180" height="80" as="geometry" />
        </mxCell>
        <mxCell id="Wa4zjlMW-Ga0Yt3BIg9S-63" style="edgeStyle=orthogonalEdgeStyle;rounded=0;orthogonalLoop=1;jettySize=auto;html=1;exitX=0.5;exitY=1;exitDx=0;exitDy=0;entryX=0.5;entryY=0;entryDx=0;entryDy=0;" edge="1" parent="WIyWlLk6GJQsqaUBKTNV-1" source="Wa4zjlMW-Ga0Yt3BIg9S-62" target="WIyWlLk6GJQsqaUBKTNV-3">
          <mxGeometry relative="1" as="geometry" />
        </mxCell>
        <mxCell id="Wa4zjlMW-Ga0Yt3BIg9S-62" value="Выбор &lt;br&gt;очередного вопроса" style="shape=process;whiteSpace=wrap;html=1;backgroundOutline=1;size=0.05555555555555555;" vertex="1" parent="WIyWlLk6GJQsqaUBKTNV-1">
          <mxGeometry x="190" y="480" width="180" height="80" as="geometry" />
        </mxCell>
        <mxCell id="Wa4zjlMW-Ga0Yt3BIg9S-64" value="Запуск &lt;br&gt;приложения" style="endArrow=classic;html=1;rounded=0;" edge="1" parent="WIyWlLk6GJQsqaUBKTNV-1" source="Wa4zjlMW-Ga0Yt3BIg9S-65">
          <mxGeometry x="-0.005" width="50" height="50" relative="1" as="geometry">
            <mxPoint x="130" y="60" as="sourcePoint" />
            <mxPoint x="200" y="120" as="targetPoint" />
            <mxPoint as="offset" />
          </mxGeometry>
        </mxCell>
        <mxCell id="Wa4zjlMW-Ga0Yt3BIg9S-65" value="Actor" style="shape=umlActor;verticalLabelPosition=bottom;verticalAlign=top;html=1;outlineConnect=0;" vertex="1" parent="WIyWlLk6GJQsqaUBKTNV-1">
          <mxGeometry x="30" y="80" width="40" height="80" as="geometry" />
        </mxCell>
        <mxCell id="Wa4zjlMW-Ga0Yt3BIg9S-67" value="" style="endArrow=none;html=1;rounded=0;" edge="1" parent="WIyWlLk6GJQsqaUBKTNV-1" source="Wa4zjlMW-Ga0Yt3BIg9S-60" target="Wa4zjlMW-Ga0Yt3BIg9S-68">
          <mxGeometry width="50" height="50" relative="1" as="geometry">
            <mxPoint x="630" y="370" as="sourcePoint" />
            <mxPoint x="680" y="320" as="targetPoint" />
          </mxGeometry>
        </mxCell>
        <mxCell id="Wa4zjlMW-Ga0Yt3BIg9S-68" value="Формирование списка вопросов на игру ограниченно по количеству,&amp;nbsp;&lt;br&gt;выполняется из общего списка вопросов в уровне по индивидуальному плану пользователя, с учетом рейтинга знаний" style="text;html=1;strokeColor=none;fillColor=none;align=left;verticalAlign=middle;whiteSpace=wrap;rounded=0;spacing=10;fontStyle=2" vertex="1" parent="WIyWlLk6GJQsqaUBKTNV-1">
          <mxGeometry x="400" y="280" width="160" height="200" as="geometry" />
        </mxCell>
        <mxCell id="Wa4zjlMW-Ga0Yt3BIg9S-69" value="Да" style="endArrow=classic;html=1;rounded=0;" edge="1" parent="WIyWlLk6GJQsqaUBKTNV-1" source="Wa4zjlMW-Ga0Yt3BIg9S-39" target="Wa4zjlMW-Ga0Yt3BIg9S-70">
          <mxGeometry width="50" height="50" relative="1" as="geometry">
            <mxPoint x="450" y="120" as="sourcePoint" />
            <mxPoint x="500" y="70" as="targetPoint" />
          </mxGeometry>
        </mxCell>
        <mxCell id="Wa4zjlMW-Ga0Yt3BIg9S-70" value="Предложение продолжить игру" style="rounded=1;whiteSpace=wrap;html=1;" vertex="1" parent="WIyWlLk6GJQsqaUBKTNV-1">
          <mxGeometry x="600" y="80" width="160" height="80" as="geometry" />
        </mxCell>
        <mxCell id="Wa4zjlMW-Ga0Yt3BIg9S-71" value="Продолжить &lt;br&gt;игру" style="endArrow=classic;html=1;rounded=0;" edge="1" parent="WIyWlLk6GJQsqaUBKTNV-1" source="Wa4zjlMW-Ga0Yt3BIg9S-70" target="Wa4zjlMW-Ga0Yt3BIg9S-62">
          <mxGeometry x="-0.8637" y="-3" width="50" height="50" relative="1" as="geometry">
            <mxPoint x="600" y="160" as="sourcePoint" />
            <mxPoint x="660" y="160" as="targetPoint" />
            <Array as="points">
              <mxPoint x="640" y="240" />
              <mxPoint x="640" y="520" />
            </Array>
            <mxPoint as="offset" />
          </mxGeometry>
        </mxCell>
        <mxCell id="Wa4zjlMW-Ga0Yt3BIg9S-72" value="Остановить&lt;br&gt;игру" style="endArrow=classic;html=1;rounded=0;entryX=1;entryY=0.5;entryDx=0;entryDy=0;" edge="1" parent="WIyWlLk6GJQsqaUBKTNV-1" source="Wa4zjlMW-Ga0Yt3BIg9S-70" target="Wa4zjlMW-Ga0Yt3BIg9S-61">
          <mxGeometry x="-0.8278" width="50" height="50" relative="1" as="geometry">
            <mxPoint x="610" y="200" as="sourcePoint" />
            <mxPoint x="700" y="330" as="targetPoint" />
            <Array as="points">
              <mxPoint x="760" y="240" />
              <mxPoint x="760" y="640" />
            </Array>
            <mxPoint as="offset" />
          </mxGeometry>
        </mxCell>
      </root>
    </mxGraphModel>
  </diagram>
</mxfile>
